<?xml version="1.0" encoding="UTF-8" standalone="no"?><!-- Generator: Gravit.io --><svg xmlns="http://www.w3.org/2000/svg" xmlns:xlink="http://www.w3.org/1999/xlink" style="isolation:isolate" viewBox="0 0 128 128" width="128pt" height="128pt"><defs><clipPath id="_clipPath_N4eqfwRHJWT5UNIbcTbjgwolpH9a8yTA"><rect width="128" height="128"/></clipPath></defs><g clip-path="url(#_clipPath_N4eqfwRHJWT5UNIbcTbjgwolpH9a8yTA)"><rect x="0" y="0" width="128" height="128" transform="matrix(1,0,0,1,0,0)" fill="rgb(0,0,0)"/><g><path d=" M 31.463 111.996 L 31.463 73.64 L 43.516 73.64 L 43.516 77.127 L 35.131 77.127 L 35.131 108.509 L 43.516 108.509 L 43.516 111.996 L 31.463 111.996 L 31.463 111.996 Z " fill="rgb(255,153,0)"/><path d=" M 83.398 108.509 L 91.783 108.509 L 91.783 77.127 L 83.398 77.127 L 83.398 73.64 L 95.452 73.64 L 95.452 111.996 L 83.398 111.996 L 83.398 108.509 L 83.398 108.509 Z " fill="rgb(255,153,0)"/><path d=" M 54.534 98.514 L 54.534 98.514 L 54.534 98.514 Q 50.914 98.514 50.914 94.268 L 50.914 94.268 L 50.914 94.268 Q 50.914 92.094 51.778 91.14 L 51.778 91.14 L 51.778 91.14 Q 52.642 90.186 54.413 90.186 L 54.413 90.186 L 54.413 90.186 Q 56.185 90.186 57.027 91.14 L 57.027 91.14 L 57.027 91.14 Q 57.869 92.094 57.869 94.278 L 57.869 94.278 L 57.869 94.278 Q 57.869 96.463 57.087 97.488 L 57.087 97.488 L 57.087 97.488 Q 56.305 98.514 54.534 98.514 Z  M 63.873 98.514 L 63.873 98.514 L 63.873 98.514 Q 60.253 98.514 60.253 94.268 L 60.253 94.268 L 60.253 94.268 Q 60.253 92.094 61.117 91.14 L 61.117 91.14 L 61.117 91.14 Q 61.981 90.186 63.753 90.186 L 63.753 90.186 L 63.753 90.186 Q 65.524 90.186 66.367 91.14 L 66.367 91.14 L 66.367 91.14 Q 67.209 92.094 67.209 94.278 L 67.209 94.278 L 67.209 94.278 Q 67.209 96.463 66.427 97.488 L 66.427 97.488 L 66.427 97.488 Q 65.645 98.514 63.873 98.514 Z  M 73.213 98.514 L 73.213 98.514 L 73.213 98.514 Q 69.593 98.514 69.593 94.268 L 69.593 94.268 L 69.593 94.268 Q 69.593 92.094 70.457 91.14 L 70.457 91.14 L 70.457 91.14 Q 71.321 90.186 73.092 90.186 L 73.092 90.186 L 73.092 90.186 Q 74.864 90.186 75.706 91.14 L 75.706 91.14 L 75.706 91.14 Q 76.548 92.094 76.548 94.278 L 76.548 94.278 L 76.548 94.278 Q 76.548 96.463 75.766 97.488 L 75.766 97.488 L 75.766 97.488 Q 74.984 98.514 73.213 98.514 Z " fill="rgb(255,153,0)"/></g><path d=" M 15.48 42.082 L 15.48 42.082 L 15.48 42.082 Q 15.1 42.412 14.97 42.812 L 14.97 42.812 L 14.97 42.812 Q 14.84 43.212 14.84 43.662 L 14.84 43.662 L 14.84 43.662 Q 14.84 44.112 15.23 44.492 L 15.23 44.492 L 15.23 44.492 Q 15.62 44.872 16.26 45.132 L 16.26 45.132 L 16.26 45.132 Q 16.9 45.392 17.72 45.592 L 17.72 45.592 L 17.72 45.592 Q 18.54 45.792 19.39 46.002 L 19.39 46.002 L 19.39 46.002 Q 20.24 46.212 21.06 46.482 L 21.06 46.482 L 21.06 46.482 Q 21.88 46.752 22.52 47.172 L 22.52 47.172 L 22.52 47.172 Q 23.94 48.072 23.94 49.632 L 23.94 49.632 L 23.94 49.632 Q 23.94 51.492 22.55 52.472 L 22.55 52.472 L 22.55 52.472 Q 21.16 53.452 18.7 53.452 L 18.7 53.452 L 18.7 53.452 Q 15.92 53.452 14.46 52.292 L 14.46 52.292 L 14.46 52.292 Q 13.16 51.252 12.98 49.332 L 12.98 49.332 L 14.54 49.332 L 14.54 49.332 Q 14.62 50.692 15.86 51.412 L 15.86 51.412 L 15.86 51.412 Q 16.94 52.032 18.72 52.032 L 18.72 52.032 L 18.72 52.032 Q 22.44 52.032 22.44 49.692 L 22.44 49.692 L 22.44 49.692 Q 22.44 48.892 21.77 48.432 L 21.77 48.432 L 21.77 48.432 Q 21.1 47.972 20.09 47.672 L 20.09 47.672 L 20.09 47.672 Q 19.08 47.372 17.91 47.112 L 17.91 47.112 L 17.91 47.112 Q 16.74 46.852 15.73 46.442 L 15.73 46.442 L 15.73 46.442 Q 14.72 46.032 14.05 45.362 L 14.05 45.362 L 14.05 45.362 Q 13.38 44.692 13.38 43.552 L 13.38 43.552 L 13.38 43.552 Q 13.38 41.932 14.62 40.912 L 14.62 40.912 L 14.62 40.912 Q 15.86 39.892 18.36 39.892 L 18.36 39.892 L 18.36 39.892 Q 20.88 39.892 22.26 41.052 L 22.26 41.052 L 22.26 41.052 Q 23.52 42.072 23.6 43.672 L 23.6 43.672 L 22.06 43.672 L 22.06 43.672 Q 21.86 42.032 19.94 41.492 L 19.94 41.492 L 19.94 41.492 Q 19.26 41.292 18.25 41.292 L 18.25 41.292 L 18.25 41.292 Q 17.24 41.292 16.55 41.522 L 16.55 41.522 L 16.55 41.522 Q 15.86 41.752 15.48 42.082 Z  M 26.94 39.292 L 28.44 39.292 L 28.44 44.852 L 28.44 44.852 Q 28.98 44.132 29.76 43.632 L 29.76 43.632 L 29.76 43.632 Q 30.54 43.132 31.54 43.132 L 31.54 43.132 L 31.54 43.132 Q 32.54 43.132 33.26 43.412 L 33.26 43.412 L 33.26 43.412 Q 33.98 43.692 34.52 44.252 L 34.52 44.252 L 34.52 44.252 Q 35.76 45.472 35.76 47.472 L 35.76 47.472 L 35.76 53.292 L 34.26 53.292 L 34.26 47.512 L 34.26 47.512 Q 34.26 46.132 33.48 45.312 L 33.48 45.312 L 33.48 45.312 Q 32.7 44.492 31.46 44.492 L 31.46 44.492 L 31.46 44.492 Q 30.2 44.492 29.32 45.332 L 29.32 45.332 L 29.32 45.332 Q 28.44 46.192 28.44 47.532 L 28.44 47.532 L 28.44 53.292 L 26.94 53.292 L 26.94 39.292 L 26.94 39.292 Z  M 43.6 43.132 L 43.6 43.132 L 43.6 43.132 Q 45.84 43.132 47.24 44.632 L 47.24 44.632 L 47.24 44.632 Q 48.56 46.072 48.56 48.292 L 48.56 48.292 L 48.56 48.292 Q 48.56 50.512 47.24 51.952 L 47.24 51.952 L 47.24 51.952 Q 45.84 53.452 43.6 53.452 L 43.6 53.452 L 43.6 53.452 Q 41.36 53.452 39.96 51.952 L 39.96 51.952 L 39.96 51.952 Q 38.64 50.512 38.64 48.292 L 38.64 48.292 L 38.64 48.292 Q 38.64 46.072 39.96 44.632 L 39.96 44.632 L 39.96 44.632 Q 41.36 43.132 43.6 43.132 Z  M 43.6 52.092 L 43.6 52.092 L 43.6 52.092 Q 45.22 52.092 46.16 50.972 L 46.16 50.972 L 46.16 50.972 Q 47.06 49.912 47.06 48.292 L 47.06 48.292 L 47.06 48.292 Q 47.06 46.672 46.16 45.612 L 46.16 45.612 L 46.16 45.612 Q 45.22 44.492 43.6 44.492 L 43.6 44.492 L 43.6 44.492 Q 41.98 44.492 41.04 45.612 L 41.04 45.612 L 41.04 45.612 Q 40.14 46.672 40.14 48.292 L 40.14 48.292 L 40.14 48.292 Q 40.14 49.912 41.04 50.972 L 41.04 50.972 L 41.04 50.972 Q 41.98 52.092 43.6 52.092 Z  M 56.72 43.132 L 56.82 43.132 L 56.82 44.632 L 56.64 44.632 L 56.64 44.632 Q 55.02 44.632 54 45.932 L 54 45.932 L 54 45.932 Q 53.04 47.172 53.04 48.892 L 53.04 48.892 L 53.04 53.292 L 51.54 53.292 L 51.54 43.292 L 53.04 43.292 L 53.04 45.752 L 53.04 45.752 Q 53.52 44.192 55.12 43.452 L 55.12 43.452 L 55.12 43.452 Q 55.78 43.132 56.72 43.132 L 56.72 43.132 L 56.72 43.132 Z  M 62.02 53.292 L 60.52 53.292 L 60.52 44.612 L 58.48 44.612 L 58.48 43.292 L 60.52 43.292 L 60.52 39.712 L 62.02 39.712 L 62.02 43.292 L 64.32 43.292 L 64.32 44.612 L 62.02 44.612 L 62.02 53.292 L 62.02 53.292 Z  M 71.38 52.092 L 71.38 52.092 L 71.38 52.092 Q 72.34 52.092 73.08 51.552 L 73.08 51.552 L 73.08 51.552 Q 73.82 51.012 74.16 50.152 L 74.16 50.152 L 75.78 50.152 L 75.78 50.152 Q 75.32 51.632 74.1 52.532 L 74.1 52.532 L 74.1 52.532 Q 72.82 53.452 71.06 53.452 L 71.06 53.452 L 71.06 53.452 Q 68.86 53.452 67.48 51.952 L 67.48 51.952 L 67.48 51.952 Q 66.14 50.492 66.14 48.292 L 66.14 48.292 L 66.14 48.292 Q 66.14 46.092 67.48 44.632 L 67.48 44.632 L 67.48 44.632 Q 68.86 43.132 71.06 43.132 L 71.06 43.132 L 71.06 43.132 Q 72.82 43.132 74.1 44.052 L 74.1 44.052 L 74.1 44.052 Q 75.32 44.952 75.78 46.432 L 75.78 46.432 L 74.16 46.432 L 74.16 46.432 Q 73.82 45.572 73.08 45.032 L 73.08 45.032 L 73.08 45.032 Q 72.34 44.492 71.38 44.492 L 71.38 44.492 L 71.38 44.492 Q 70.42 44.492 69.75 44.792 L 69.75 44.792 L 69.75 44.792 Q 69.08 45.092 68.62 45.612 L 68.62 45.612 L 68.62 45.612 Q 67.64 46.692 67.64 48.292 L 67.64 48.292 L 67.64 48.292 Q 67.64 49.892 68.62 50.972 L 68.62 50.972 L 68.62 50.972 Q 69.62 52.092 71.38 52.092 Z  M 82.98 43.132 L 82.98 43.132 L 82.98 43.132 Q 85.22 43.132 86.62 44.632 L 86.62 44.632 L 86.62 44.632 Q 87.94 46.072 87.94 48.292 L 87.94 48.292 L 87.94 48.292 Q 87.94 50.512 86.62 51.952 L 86.62 51.952 L 86.62 51.952 Q 85.22 53.452 82.98 53.452 L 82.98 53.452 L 82.98 53.452 Q 80.74 53.452 79.34 51.952 L 79.34 51.952 L 79.34 51.952 Q 78.02 50.512 78.02 48.292 L 78.02 48.292 L 78.02 48.292 Q 78.02 46.072 79.34 44.632 L 79.34 44.632 L 79.34 44.632 Q 80.74 43.132 82.98 43.132 Z  M 82.98 52.092 L 82.98 52.092 L 82.98 52.092 Q 84.6 52.092 85.54 50.972 L 85.54 50.972 L 85.54 50.972 Q 86.44 49.912 86.44 48.292 L 86.44 48.292 L 86.44 48.292 Q 86.44 46.672 85.54 45.612 L 85.54 45.612 L 85.54 45.612 Q 84.6 44.492 82.98 44.492 L 82.98 44.492 L 82.98 44.492 Q 81.36 44.492 80.42 45.612 L 80.42 45.612 L 80.42 45.612 Q 79.52 46.672 79.52 48.292 L 79.52 48.292 L 79.52 48.292 Q 79.52 49.912 80.42 50.972 L 80.42 50.972 L 80.42 50.972 Q 81.36 52.092 82.98 52.092 Z  M 98.72 53.292 L 98.72 51.692 L 98.72 51.692 Q 97.52 53.452 95.14 53.452 L 95.14 53.452 L 95.14 53.452 Q 92.98 53.452 91.62 51.952 L 91.62 51.952 L 91.62 51.952 Q 90.3 50.472 90.3 48.292 L 90.3 48.292 L 90.3 48.292 Q 90.3 46.112 91.62 44.632 L 91.62 44.632 L 91.62 44.632 Q 92.98 43.132 95.24 43.132 L 95.24 43.132 L 95.24 43.132 Q 97.5 43.132 98.72 44.912 L 98.72 44.912 L 98.72 39.292 L 100.22 39.292 L 100.22 53.292 L 98.72 53.292 L 98.72 53.292 Z  M 95.34 52.092 L 95.34 52.092 L 95.34 52.092 Q 96.96 52.092 97.9 50.972 L 97.9 50.972 L 97.9 50.972 Q 98.8 49.912 98.8 48.292 L 98.8 48.292 L 98.8 48.292 Q 98.8 46.672 97.9 45.612 L 97.9 45.612 L 97.9 45.612 Q 96.96 44.492 95.34 44.492 L 95.34 44.492 L 95.34 44.492 Q 93.74 44.492 92.74 45.612 L 92.74 45.612 L 92.74 45.612 Q 91.8 46.672 91.8 48.292 L 91.8 48.292 L 91.8 48.292 Q 91.8 49.912 92.74 50.972 L 92.74 50.972 L 92.74 50.972 Q 93.74 52.092 95.34 52.092 Z  M 108.28 52.092 L 108.28 52.092 L 108.28 52.092 Q 110.3 52.092 111.18 50.412 L 111.18 50.412 L 112.82 50.412 L 112.82 50.412 Q 112.3 51.772 111.17 52.612 L 111.17 52.612 L 111.17 52.612 Q 110.04 53.452 108.26 53.452 L 108.26 53.452 L 108.26 53.452 Q 106 53.452 104.58 51.952 L 104.58 51.952 L 104.58 51.952 Q 103.2 50.492 103.2 48.292 L 103.2 48.292 L 103.2 48.292 Q 103.2 46.072 104.52 44.632 L 104.52 44.632 L 104.52 44.632 Q 105.92 43.132 108.16 43.132 L 108.16 43.132 L 108.16 43.132 Q 110.4 43.132 111.8 44.632 L 111.8 44.632 L 111.8 44.632 Q 113.12 46.072 113.12 48.292 L 113.12 48.292 L 113.12 48.892 L 104.74 48.892 L 104.74 48.892 Q 104.9 50.272 105.84 51.172 L 105.84 51.172 L 105.84 51.172 Q 106.8 52.092 108.28 52.092 Z  M 108.16 44.492 L 108.16 44.492 L 108.16 44.492 Q 106.78 44.492 105.84 45.352 L 105.84 45.352 L 105.84 45.352 Q 104.96 46.172 104.76 47.492 L 104.76 47.492 L 111.56 47.492 L 111.56 47.492 Q 111.36 46.172 110.48 45.352 L 110.48 45.352 L 110.48 45.352 Q 109.54 44.492 108.16 44.492 Z  M 51.67 23.16 L 53.41 23.16 L 53.41 36.4 L 51.91 36.4 L 51.91 25.44 L 47.01 31.74 L 42.03 25.44 L 42.03 36.4 L 40.53 36.4 L 40.53 23.16 L 42.27 23.16 L 47.01 29.44 L 51.67 23.16 L 51.67 23.16 Z  M 61.61 35.2 L 61.61 35.2 L 61.61 35.2 Q 63.63 35.2 64.51 33.52 L 64.51 33.52 L 66.15 33.52 L 66.15 33.52 Q 65.63 34.88 64.5 35.72 L 64.5 35.72 L 64.5 35.72 Q 63.37 36.56 61.59 36.56 L 61.59 36.56 L 61.59 36.56 Q 59.33 36.56 57.91 35.06 L 57.91 35.06 L 57.91 35.06 Q 56.53 33.6 56.53 31.4 L 56.53 31.4 L 56.53 31.4 Q 56.53 29.18 57.85 27.74 L 57.85 27.74 L 57.85 27.74 Q 59.25 26.24 61.49 26.24 L 61.49 26.24 L 61.49 26.24 Q 63.73 26.24 65.13 27.74 L 65.13 27.74 L 65.13 27.74 Q 66.45 29.18 66.45 31.4 L 66.45 31.4 L 66.45 32 L 58.07 32 L 58.07 32 Q 58.23 33.38 59.17 34.28 L 59.17 34.28 L 59.17 34.28 Q 60.13 35.2 61.61 35.2 Z  M 61.49 27.6 L 61.49 27.6 L 61.49 27.6 Q 60.11 27.6 59.17 28.46 L 59.17 28.46 L 59.17 28.46 Q 58.29 29.28 58.09 30.6 L 58.09 30.6 L 64.89 30.6 L 64.89 30.6 Q 64.69 29.28 63.81 28.46 L 63.81 28.46 L 63.81 28.46 Q 62.87 27.6 61.49 27.6 Z  M 71.75 36.4 L 70.25 36.4 L 70.25 27.72 L 68.21 27.72 L 68.21 26.4 L 70.25 26.4 L 70.25 22.82 L 71.75 22.82 L 71.75 26.4 L 74.05 26.4 L 74.05 27.72 L 71.75 27.72 L 71.75 36.4 L 71.75 36.4 Z  M 84.29 36.4 L 84.29 34.8 L 84.29 34.8 Q 83.09 36.56 80.71 36.56 L 80.71 36.56 L 80.71 36.56 Q 78.55 36.56 77.19 35.06 L 77.19 35.06 L 77.19 35.06 Q 75.87 33.58 75.87 31.4 L 75.87 31.4 L 75.87 31.4 Q 75.87 29.22 77.19 27.74 L 77.19 27.74 L 77.19 27.74 Q 78.55 26.24 80.81 26.24 L 80.81 26.24 L 80.81 26.24 Q 83.07 26.24 84.29 28.02 L 84.29 28.02 L 84.29 26.4 L 85.79 26.4 L 85.79 36.4 L 84.29 36.4 L 84.29 36.4 Z  M 80.91 35.2 L 80.91 35.2 L 80.91 35.2 Q 82.53 35.2 83.47 34.08 L 83.47 34.08 L 83.47 34.08 Q 84.37 33.02 84.37 31.4 L 84.37 31.4 L 84.37 31.4 Q 84.37 29.78 83.47 28.72 L 83.47 28.72 L 83.47 28.72 Q 82.53 27.6 80.91 27.6 L 80.91 27.6 L 80.91 27.6 Q 79.31 27.6 78.31 28.72 L 78.31 28.72 L 78.31 28.72 Q 77.37 29.78 77.37 31.4 L 77.37 31.4 L 77.37 31.4 Q 77.37 33.02 78.31 34.08 L 78.31 34.08 L 78.31 34.08 Q 79.31 35.2 80.91 35.2 Z " fill="rgb(255,255,255)"/></g></svg>